<svg width="148" height="27" viewBox="0 0 148 27" fill="none" xmlns="http://www.w3.org/2000/svg">
<path d="M7.31104 18.1362L11.9829 4.64844H14.3413L8.27686 21H6.36768L0.314453 4.64844H2.66162L7.31104 18.1362ZM21.5288 12.8579L25.7964 4.64844H28.2446L22.6069 14.9019V21H20.4507V14.9019L14.813 4.64844H17.2837L21.5288 12.8579ZM40.7891 4.64844V15.7666C40.7816 17.3089 40.2949 18.5705 39.3291 19.5513C38.3708 20.5321 37.068 21.0824 35.4209 21.2021L34.8481 21.2246C33.0588 21.2246 31.6325 20.7417 30.5693 19.7759C29.5062 18.8101 28.9671 17.4811 28.9521 15.7891V4.64844H31.0859V15.7217C31.0859 16.9046 31.4116 17.8255 32.063 18.4844C32.7144 19.1357 33.6427 19.4614 34.8481 19.4614C36.0685 19.4614 37.0007 19.1357 37.6445 18.4844C38.2959 17.833 38.6216 16.9159 38.6216 15.7329V4.64844H40.7891Z" fill="black"/>
<path d="M96.0654 19.2368H103.814V21H93.8979V4.64844H96.0654V19.2368ZM115.528 16.7324H108.677L107.139 21H104.915L111.159 4.64844H113.046L119.301 21H117.089L115.528 16.7324ZM109.329 14.958H114.888L112.103 7.31006L109.329 14.958ZM121.502 21V4.64844H126.848C128.623 4.64844 129.955 5.0153 130.846 5.74902C131.745 6.48275 132.194 7.56836 132.194 9.00586C132.194 9.76953 131.977 10.4471 131.542 11.0386C131.108 11.6226 130.517 12.0755 129.768 12.3975C130.652 12.6445 131.348 13.1162 131.857 13.8125C132.374 14.5013 132.632 15.3249 132.632 16.2832C132.632 17.7507 132.156 18.9036 131.206 19.7422C130.255 20.5807 128.911 21 127.174 21H121.502ZM123.659 13.3521V19.2368H127.219C128.222 19.2368 129.012 18.9785 129.588 18.4619C130.172 17.9378 130.464 17.2191 130.464 16.3057C130.464 14.3366 129.394 13.3521 127.252 13.3521H123.659ZM123.659 11.6226H126.916C127.859 11.6226 128.611 11.3867 129.173 10.915C129.742 10.4434 130.026 9.80322 130.026 8.99463C130.026 8.09619 129.764 7.44482 129.24 7.04053C128.716 6.62874 127.919 6.42285 126.848 6.42285H123.659V11.6226ZM140.65 13.7114C138.801 13.1799 137.453 12.5285 136.607 11.7573C135.769 10.9787 135.35 10.0203 135.35 8.88232C135.35 7.59456 135.862 6.53141 136.888 5.69287C137.921 4.84684 139.262 4.42383 140.909 4.42383C142.032 4.42383 143.031 4.64095 143.907 5.0752C144.791 5.50944 145.472 6.1084 145.951 6.87207C146.438 7.63574 146.681 8.47054 146.681 9.37646H144.514C144.514 8.38818 144.199 7.61328 143.57 7.05176C142.941 6.48275 142.054 6.19824 140.909 6.19824C139.846 6.19824 139.014 6.43408 138.416 6.90576C137.824 7.36995 137.528 8.01758 137.528 8.84863C137.528 9.51497 137.809 10.0802 138.371 10.5444C138.94 11.0011 139.902 11.4204 141.257 11.8022C142.619 12.1841 143.683 12.6071 144.446 13.0713C145.217 13.528 145.786 14.0633 146.153 14.6772C146.528 15.2912 146.715 16.0137 146.715 16.8447C146.715 18.1699 146.198 19.2331 145.165 20.0342C144.132 20.8278 142.75 21.2246 141.021 21.2246C139.898 21.2246 138.85 21.0112 137.876 20.5845C136.903 20.1502 136.151 19.5588 135.619 18.8101C135.095 18.0614 134.833 17.2116 134.833 16.2607H137C137 17.249 137.364 18.0314 138.09 18.6079C138.824 19.1769 139.801 19.4614 141.021 19.4614C142.159 19.4614 143.031 19.2293 143.638 18.7651C144.244 18.3009 144.547 17.6683 144.547 16.8672C144.547 16.0661 144.267 15.4484 143.705 15.0142C143.144 14.5724 142.125 14.1382 140.65 13.7114Z" fill="black"/>
<rect x="57" width="27" height="27" rx="13.5" fill="#A40080"/>
<path d="M78.5996 13.5004L66.4496 20.5152V6.48558L78.5996 13.5004Z" fill="white"/>
<path d="M63 10L55.5 14.3301V5.66987L63 10Z" fill="white"/>
<path d="M60 10L55.5 12.5981V7.40192L60 10Z" fill="#A40080"/>
<path d="M56 14L53 15.7321V12.2679L56 14Z" fill="#A40080"/>
<path d="M54 10.5L51.75 11.799V9.20096L54 10.5Z" fill="#A40080"/>
</svg>
